<svg id="Layer_1" data-name="Layer 1" xmlns="http://www.w3.org/2000/svg" xmlns:xlink="http://www.w3.org/1999/xlink" viewBox="0 0 189.44 155.82"><defs><style>.cls-1{fill:url(#linear-gradient);}.cls-2{fill:url(#linear-gradient-2);}.cls-3{fill:url(#linear-gradient-3);}</style><linearGradient id="linear-gradient" x1="344.25" y1="340.15" x2="467.08" y2="340.15" gradientUnits="userSpaceOnUse"><stop offset="0.1" stop-color="#2484c6"/><stop offset="0.75" stop-color="#2a3c92"/></linearGradient><linearGradient id="linear-gradient-2" x1="310.56" y1="420.28" x2="382.53" y2="420.28" xlink:href="#linear-gradient"/><linearGradient id="linear-gradient-3" x1="377.17" y1="421.67" x2="500" y2="421.67" xlink:href="#linear-gradient"/></defs><path class="cls-1" d="M348.36,372.41a10.09,10.09,0,0,0,14.28.09l34.54-34.14a10.1,10.1,0,0,1,14.24.05l35.94,35.94a10.1,10.1,0,0,0,14.28,0l2.48-2.48a10.09,10.09,0,0,0,0-14.28L412.5,306a10.1,10.1,0,0,0-14.29,0l-51,51a10.1,10.1,0,0,0,0,14.24Z" transform="translate(-310.56 -303)"/><path class="cls-2" d="M330.54,387.55a10,10,0,0,0-14,.12l-3,3a10,10,0,0,0,0,14.17l48,48a10,10,0,0,0,14.17,0l3.88-3.88a10,10,0,0,0-.13-14.3Z" transform="translate(-310.56 -303)"/><path class="cls-3" d="M497.09,390.62l-1.19-1.21a10.11,10.11,0,0,0-14.29-.09l-34.53,34.13a10.1,10.1,0,0,1-14.25,0l-35.94-35.94a10.1,10.1,0,0,0-14.28,0L380.13,390a10.12,10.12,0,0,0,0,14.29l51.63,51.62a10.1,10.1,0,0,0,14.28,0l51-51A10.1,10.1,0,0,0,497.09,390.62Z" transform="translate(-310.56 -303)"/></svg>