<svg id="Layer_1" data-name="Layer 1" xmlns="http://www.w3.org/2000/svg" viewBox="0 0 189.42 155.59"><defs><style>.cls-1{fill:#ffd200;}.cls-2{fill:#005793;}</style></defs><path class="cls-1" d="M109.36,430.94l3.88-3.88a10,10,0,0,0-.13-14.3L64.19,365.6a10,10,0,0,0-14,.12l-3,3a10,10,0,0,0,0,14.17l48.05,48A10,10,0,0,0,109.36,430.94Z" transform="translate(-44.21 -281.27)"/><path class="cls-1" d="M182.13,400.11l-1.41,1.39a10.09,10.09,0,0,1-14.24,0l-35.94-35.94a10.12,10.12,0,0,0-14.29,0L113.78,368a10.1,10.1,0,0,0,0,14.29l51.62,51.62a10.12,10.12,0,0,0,14.29,0l18.12-18.12Z" transform="translate(-44.21 -281.27)"/><path class="cls-1" d="M82,350.46a10.11,10.11,0,0,0,14.29.09l18.25-18L99,316.92,80.85,335a10.11,10.11,0,0,0,0,14.24Z" transform="translate(-44.21 -281.27)"/><path class="cls-2" d="M114.52,332.74l16.29-16.1a10.09,10.09,0,0,1,14.24,0L181,352.62a10.1,10.1,0,0,0,14.28,0l2.48-2.48a10.09,10.09,0,0,0,0-14.28l-51.62-51.63a10.1,10.1,0,0,0-14.28,0L98.93,317.14Z" transform="translate(-44.21 -281.27)"/><path class="cls-2" d="M229.53,367.69a10.09,10.09,0,0,0-14.29-.09l-33.12,32.73L197.8,416l32.87-32.88a10.1,10.1,0,0,0,.05-14.24Z" transform="translate(-44.21 -281.27)"/></svg>